<svg width="42" height="42" viewBox="0 0 42 42" fill="none" xmlns="http://www.w3.org/2000/svg">
<circle cx="21" cy="21" r="21" fill="#D91D63"/>
<path d="M22.2967 14.6325L23.6167 17.2725C23.7967 17.64 24.2767 17.9925 24.6817 18.06L27.0742 18.4575C28.6042 18.7125 28.9642 19.8225 27.8617 20.9175L26.0017 22.7775C25.6867 23.0925 25.5142 23.7 25.6117 24.135L26.1442 26.4375C26.5642 28.26 25.5967 28.965 23.9842 28.0125L21.7417 26.685C21.3367 26.445 20.6692 26.445 20.2567 26.685L18.0142 28.0125C16.4092 28.965 15.4342 28.2525 15.8542 26.4375L16.3867 24.135C16.4842 23.7 16.3117 23.0925 15.9967 22.7775L14.1367 20.9175C13.0417 19.8225 13.3942 18.7125 14.9242 18.4575L17.3167 18.06C17.7142 17.9925 18.1942 17.64 18.3742 17.2725L19.6942 14.6325C20.4142 13.2 21.5842 13.2 22.2967 14.6325Z" fill="white"/>
</svg>
