<svg width="20" height="20" viewBox="0 0 20 20" fill="none" xmlns="http://www.w3.org/2000/svg">
<path d="M13.7497 2.5C16.281 2.5 18.333 4.58333 18.333 7.5C18.333 13.3333 12.083 16.6667 9.99967 17.9167C8.35184 16.9279 4.09717 14.6358 2.39046 10.8342L0.833008 10.8333V9.16667L1.84172 9.16742C1.72822 8.63608 1.66634 8.08043 1.66634 7.5C1.66634 4.58333 3.74967 2.5 6.24967 2.5C7.79965 2.5 9.16634 3.33333 9.99967 4.16667C10.833 3.33333 12.1997 2.5 13.7497 2.5ZM13.7497 4.16667C12.8531 4.16667 11.8824 4.64092 11.1782 5.34518L9.99967 6.52369L8.82117 5.34518C8.11691 4.64092 7.14626 4.16667 6.24967 4.16667C4.63222 4.16667 3.33301 5.54708 3.33301 7.5C3.33301 8.07118 3.4083 8.62633 3.55516 9.167L5.36118 9.16667L7.08301 6.29696L9.58301 10.4636L10.3612 9.16667H14.1663V10.8333H11.3048L9.58301 13.7031L7.08301 9.53642L6.30483 10.8333L4.25625 10.8338C4.91407 11.9781 5.91054 13.0568 7.20396 14.0858C7.82468 14.5796 8.48676 15.0404 9.22142 15.5032C9.47017 15.6599 9.71726 15.8108 9.99967 15.9793C10.2821 15.8108 10.5292 15.6599 10.7779 15.5032C11.5126 15.0404 12.1747 14.5796 12.7954 14.0858C15.2778 12.1108 16.6663 9.95292 16.6663 7.5C16.6663 5.53397 15.3855 4.16667 13.7497 4.16667Z" fill="#42117C"/>
</svg>
