<svg width="24" height="24" viewBox="0 0 24 24" fill="none" xmlns="http://www.w3.org/2000/svg">
<path d="M20.8906 6.32534C17.7157 6.01071 14.5217 5.84863 11.3373 5.84863C9.44953 5.84863 7.56175 5.94398 5.67398 6.13466L3.729 6.32534" stroke="#F74141" stroke-width="1.71616" stroke-linecap="round" stroke-linejoin="round"/>
<path d="M8.97266 5.36193L9.18241 4.11295C9.33496 3.2072 9.44937 2.53027 11.0606 2.53027H13.5586C15.1699 2.53027 15.2938 3.24534 15.4368 4.12249L15.6466 5.36193" stroke="#F74141" stroke-width="1.71616" stroke-linecap="round" stroke-linejoin="round"/>
<path d="M18.8407 9.33789L18.2209 18.9388C18.1161 20.4357 18.0303 21.5989 15.3702 21.5989H9.24926C6.58922 21.5989 6.50341 20.4357 6.39853 18.9388L5.77881 9.33789" stroke="#F74141" stroke-width="1.71616" stroke-linecap="round" stroke-linejoin="round"/>
<path d="M10.7173 16.3555H13.8922" stroke="#F74141" stroke-width="1.71616" stroke-linecap="round" stroke-linejoin="round"/>
<path d="M9.92627 12.542H14.6934" stroke="#F74141" stroke-width="1.71616" stroke-linecap="round" stroke-linejoin="round"/>
</svg>
