<svg width="20" height="20" viewBox="0 0 20 20" fill="none" xmlns="http://www.w3.org/2000/svg">
<path d="M4.55004 15.4085V12.9752C4.55004 12.1668 5.18337 11.4418 6.08337 11.4418C6.89171 11.4418 7.61671 12.0752 7.61671 12.9752V15.3168C7.61671 16.9418 6.26671 18.2918 4.64171 18.2918C3.01671 18.2918 1.66671 16.9335 1.66671 15.3168V10.1835C1.57504 5.50016 5.27504 1.7085 9.95837 1.7085C14.6417 1.7085 18.3334 5.50016 18.3334 10.0918V15.2252C18.3334 16.8502 16.9834 18.2002 15.3584 18.2002C13.7334 18.2002 12.3834 16.8502 12.3834 15.2252V12.8835C12.3834 12.0752 13.0167 11.3502 13.9167 11.3502C14.725 11.3502 15.45 11.9835 15.45 12.8835V15.4085" stroke="#42117C" stroke-width="1.5" stroke-linecap="round" stroke-linejoin="round"/>
</svg>
