<svg width="20" height="20" viewBox="0 0 20 20" fill="none" xmlns="http://www.w3.org/2000/svg">
<path d="M9.99967 9.99984C12.3009 9.99984 14.1663 8.13436 14.1663 5.83317C14.1663 3.53198 12.3009 1.6665 9.99967 1.6665C7.69849 1.6665 5.83301 3.53198 5.83301 5.83317C5.83301 8.13436 7.69849 9.99984 9.99967 9.99984Z" stroke="#42117C" stroke-width="1.5" stroke-linecap="round" stroke-linejoin="round"/>
<path d="M16.0085 13.1167L13.0585 16.0667C12.9418 16.1834 12.8335 16.4 12.8085 16.5584L12.6502 17.6833C12.5919 18.0917 12.8752 18.375 13.2835 18.3167L14.4085 18.1583C14.5668 18.1333 14.7919 18.025 14.9002 17.9084L17.8502 14.9584C18.3585 14.45 18.6002 13.8583 17.8502 13.1083C17.1085 12.3667 16.5169 12.6083 16.0085 13.1167Z" stroke="#42117C" stroke-width="1.5" stroke-miterlimit="10" stroke-linecap="round" stroke-linejoin="round"/>
<path d="M15.584 13.5415C15.834 14.4415 16.534 15.1415 17.434 15.3915" stroke="#42117C" stroke-width="1.5" stroke-miterlimit="10" stroke-linecap="round" stroke-linejoin="round"/>
<path d="M2.8418 18.3333C2.8418 15.1083 6.05015 12.5 10.0002 12.5C10.8668 12.5 11.7001 12.625 12.4751 12.8583" stroke="#42117C" stroke-width="1.5" stroke-linecap="round" stroke-linejoin="round"/>
</svg>
