<svg width="20" height="20" viewBox="0 0 20 20" fill="none" xmlns="http://www.w3.org/2000/svg">
<path d="M10.833 7.5H5.83301" stroke="#42117C" stroke-width="1.5" stroke-linecap="round" stroke-linejoin="round"/>
<path d="M18.3338 9.14147V10.8582C18.3338 11.3165 17.9672 11.6915 17.5005 11.7082H15.8672C14.9672 11.7082 14.1422 11.0498 14.0672 10.1498C14.0172 9.62482 14.2172 9.13315 14.5672 8.79148C14.8755 8.47482 15.3005 8.2915 15.7672 8.2915H17.5005C17.9672 8.30817 18.3338 8.68314 18.3338 9.14147Z" stroke="#42117C" stroke-width="1.5" stroke-linecap="round" stroke-linejoin="round"/>
<path d="M14.567 8.79149C14.217 9.13316 14.017 9.62483 14.067 10.1498C14.142 11.0498 14.967 11.7082 15.867 11.7082H17.5003V12.9165C17.5003 15.4165 15.8337 17.0832 13.3337 17.0832H5.83366C3.33366 17.0832 1.66699 15.4165 1.66699 12.9165V7.08317C1.66699 4.8165 3.03366 3.23317 5.15866 2.9665C5.37533 2.93317 5.60033 2.9165 5.83366 2.9165H13.3337C13.5503 2.9165 13.7587 2.92483 13.9587 2.95816C16.1087 3.20816 17.5003 4.79984 17.5003 7.08317V8.29151H15.767C15.3003 8.29151 14.8753 8.47483 14.567 8.79149Z" stroke="#42117C" stroke-width="1.5" stroke-linecap="round" stroke-linejoin="round"/>
</svg>
